<svg width="19" height="20" viewBox="0 0 19 20" fill="none" xmlns="http://www.w3.org/2000/svg">
<path fill-rule="evenodd" clip-rule="evenodd" d="M2.57099 19.0741C2.17396 19.3879 1.63212 19.4474 1.17655 19.2268C0.720983 19.0063 0.431358 18.5446 0.431358 18.0384V1.32845C0.431358 0.82226 0.720543 0.360523 1.17655 0.140001C1.63212 -0.0805213 2.17352 -0.0211059 2.57055 0.292731L13.1367 8.64529C13.4532 8.89574 13.6381 9.27738 13.6381 9.68101C13.6381 10.0851 13.4536 10.4667 13.1367 10.7172L2.57099 19.0741Z" fill="#FF0000"/>
<path fill-rule="evenodd" clip-rule="evenodd" d="M17.5978 19.3672H16.2773C15.5479 19.3672 14.9568 18.7761 14.9568 18.0467V1.32049C14.9568 0.59114 15.5479 0 16.2773 0H17.5978C18.3271 0 18.9182 0.59114 18.9182 1.32049V18.0467C18.9182 18.7761 18.3271 19.3672 17.5978 19.3672Z" fill="#FF0000"/>
</svg>
